<svg width="137" height="134" viewBox="0 0 137 134" fill="none" xmlns="http://www.w3.org/2000/svg">
<g opacity="0.8">
<path fill-rule="evenodd" clip-rule="evenodd" d="M14.6774 81.2994C12.9141 79.5673 10.0445 79.5673 8.2809 81.2994C8.18313 81.3954 8.08955 81.4966 8.00013 81.6025C7.91072 81.4962 7.81713 81.3954 7.71901 81.299C5.95577 79.567 3.08615 79.567 1.32256 81.299C-0.441028 83.0311 -0.44068 85.85 1.32256 87.5824L7.75381 93.8999C7.82165 93.9665 7.91072 94 7.99978 94C8.08885 94 8.17792 93.9665 8.24576 93.8999L14.677 87.5824C16.4409 85.8503 16.4409 83.0314 14.6774 81.2994Z" fill="#FF523D"/>
</g>
<g opacity="0.8">
<path fill-rule="evenodd" clip-rule="evenodd" d="M35.6774 81.2994C33.9141 79.5673 31.0445 79.5673 29.2809 81.2994C29.1831 81.3954 29.0895 81.4966 29.0001 81.6025C28.9107 81.4962 28.8171 81.3954 28.719 81.299C26.9558 79.567 24.0862 79.567 22.3226 81.299C20.559 83.0311 20.5593 85.85 22.3226 87.5824L28.7538 93.8999C28.8216 93.9665 28.9107 94 28.9998 94C29.0888 94 29.1779 93.9665 29.2458 93.8999L35.677 87.5824C37.4409 85.8503 37.4409 83.0314 35.6774 81.2994Z" fill="#FF523D"/>
</g>
<path d="M23.5213 13.3636H14.8494L4.04688 20.2031V28.3849L14.0398 22.1207H14.2955V57H23.5213V13.3636ZM48.8299 57.5966C58.5458 57.5966 65.1509 51.2685 65.1296 42.4474C65.1509 34.0952 59.3129 28.0866 51.4506 28.0866C47.6154 28.0866 44.3129 29.6847 42.7788 31.8366H42.5231L43.6523 20.9062H62.7219V13.3636H36.0458L33.979 36.375L42.1822 37.8452C43.5245 36.0341 46.1239 34.9048 48.7021 34.9048C53.0913 34.9261 56.2447 38.1009 56.2447 42.6818C56.2447 47.2202 53.1552 50.3523 48.8299 50.3523C45.1651 50.3523 42.2035 48.0511 41.9904 44.6634H33.0415C33.212 52.206 39.7958 57.5966 48.8299 57.5966ZM70.6495 57H79.7262V46.6023L82.1765 43.8111L91.104 57H101.736L88.9734 38.4418L101.118 24.2727H90.6992L80.2163 36.6946H79.7262V13.3636H70.6495V57Z" fill="#18216D"/>
<path d="M2.88636 126L4.05682 122.705H8.76136L9.93182 126H11.4091L7.13636 114.364H5.68182L1.40909 126H2.88636ZM4.5 121.455L6.36364 116.205H6.45455L8.31818 121.455H4.5ZM16.5852 126.182C18.517 126.182 19.7898 125 20.017 123.455H18.6761C18.4261 124.409 17.6307 124.977 16.5852 124.977C14.9943 124.977 13.9716 123.659 13.9716 121.636C13.9716 119.659 15.017 118.364 16.5852 118.364C17.767 118.364 18.4716 119.091 18.6761 119.886H20.017C19.7898 118.25 18.4034 117.159 16.5625 117.159C14.1989 117.159 12.6307 119.023 12.6307 121.682C12.6307 124.295 14.1307 126.182 16.5852 126.182ZM25.7727 117.273H23.9091V115.182H22.5682V117.273H21.25V118.409H22.5682V123.864C22.5682 125.386 23.7955 126.114 24.9318 126.114C25.4318 126.114 25.75 126.023 25.9318 125.955L25.6591 124.75C25.5455 124.773 25.3636 124.818 25.0682 124.818C24.4773 124.818 23.9091 124.636 23.9091 123.5V118.409H25.7727V117.273ZM27.7898 126H29.1307V117.273H27.7898V126ZM28.4716 115.818C28.9943 115.818 29.4261 115.409 29.4261 114.909C29.4261 114.409 28.9943 114 28.4716 114C27.9489 114 27.517 114.409 27.517 114.909C27.517 115.409 27.9489 115.818 28.4716 115.818ZM38.723 117.273H37.2685L34.8594 124.227H34.7685L32.3594 117.273H30.9048L34.1321 126H35.4957L38.723 117.273ZM43.8395 126.182C45.6122 126.182 46.9077 125.295 47.3168 123.977L46.0213 123.614C45.6804 124.523 44.8906 124.977 43.8395 124.977C42.2656 124.977 41.1804 123.96 41.1179 122.091H47.4531V121.523C47.4531 118.273 45.5213 117.159 43.7031 117.159C41.3395 117.159 39.7713 119.023 39.7713 121.705C39.7713 124.386 41.3168 126.182 43.8395 126.182ZM41.1179 120.932C41.2088 119.574 42.169 118.364 43.7031 118.364C45.1577 118.364 46.0895 119.455 46.0895 120.932H41.1179ZM57.7656 126C61.3111 126 63.3111 123.795 63.3111 120.159C63.3111 116.545 61.3111 114.364 57.9247 114.364H54.1747V126H57.7656ZM55.5838 124.75V115.614H57.8338C60.5611 115.614 61.9474 117.341 61.9474 120.159C61.9474 123 60.5611 124.75 57.6747 124.75H55.5838ZM69.0384 126.182C71.402 126.182 72.9929 124.386 72.9929 121.682C72.9929 118.955 71.402 117.159 69.0384 117.159C66.6747 117.159 65.0838 118.955 65.0838 121.682C65.0838 124.386 66.6747 126.182 69.0384 126.182ZM69.0384 124.977C67.2429 124.977 66.4247 123.432 66.4247 121.682C66.4247 119.932 67.2429 118.364 69.0384 118.364C70.8338 118.364 71.652 119.932 71.652 121.682C71.652 123.432 70.8338 124.977 69.0384 124.977ZM76.7202 126H78.0384L79.9474 119.295H80.0838L81.9929 126H83.3111L85.9702 117.273H84.5611L82.6747 123.932H82.5838L80.7429 117.273H79.3111L77.4474 123.955H77.3565L75.4702 117.273H74.0611L76.7202 126ZM89.0838 120.75C89.0838 119.227 90.027 118.364 91.3111 118.364C92.5554 118.364 93.3111 119.176 93.3111 120.545V126H94.652V120.455C94.652 118.227 93.4645 117.159 91.6974 117.159C90.3793 117.159 89.5611 117.75 89.152 118.636H89.0384V117.273H87.7429V126H89.0838V120.75ZM98.4432 114.364H97.1023V126H98.4432V114.364ZM104.445 126.182C106.808 126.182 108.399 124.386 108.399 121.682C108.399 118.955 106.808 117.159 104.445 117.159C102.081 117.159 100.49 118.955 100.49 121.682C100.49 124.386 102.081 126.182 104.445 126.182ZM104.445 124.977C102.649 124.977 101.831 123.432 101.831 121.682C101.831 119.932 102.649 118.364 104.445 118.364C106.24 118.364 107.058 119.932 107.058 121.682C107.058 123.432 106.24 124.977 104.445 124.977ZM113.014 126.205C114.537 126.205 115.332 125.386 115.605 124.818H115.673V126H117.014V120.25C117.014 117.477 114.901 117.159 113.787 117.159C112.469 117.159 110.969 117.614 110.287 119.205L111.56 119.659C111.855 119.023 112.554 118.341 113.832 118.341C115.065 118.341 115.673 118.994 115.673 120.114V120.159C115.673 120.807 115.014 120.75 113.423 120.955C111.804 121.165 110.037 121.523 110.037 123.523C110.037 125.227 111.355 126.205 113.014 126.205ZM113.219 125C112.151 125 111.378 124.523 111.378 123.591C111.378 122.568 112.31 122.25 113.355 122.114C113.923 122.045 115.446 121.886 115.673 121.614V122.841C115.673 123.932 114.81 125 113.219 125ZM122.757 126.182C124.439 126.182 125.007 125.136 125.303 124.659H125.462V126H126.757V114.364H125.416V118.659H125.303C125.007 118.205 124.484 117.159 122.78 117.159C120.575 117.159 119.053 118.909 119.053 121.659C119.053 124.432 120.575 126.182 122.757 126.182ZM122.939 124.977C121.257 124.977 120.393 123.5 120.393 121.636C120.393 119.795 121.234 118.364 122.939 118.364C124.575 118.364 125.439 119.682 125.439 121.636C125.439 123.614 124.553 124.977 122.939 124.977ZM135.581 119.227C135.161 117.989 134.217 117.159 132.49 117.159C130.649 117.159 129.286 118.205 129.286 119.682C129.286 120.886 130.001 121.693 131.604 122.068L133.058 122.409C133.939 122.614 134.354 123.034 134.354 123.636C134.354 124.386 133.558 125 132.308 125C131.212 125 130.524 124.528 130.286 123.591L129.013 123.909C129.325 125.392 130.547 126.182 132.331 126.182C134.359 126.182 135.74 125.074 135.74 123.568C135.74 122.352 134.979 121.585 133.422 121.205L132.126 120.886C131.092 120.631 130.626 120.284 130.626 119.614C130.626 118.864 131.422 118.318 132.49 118.318C133.661 118.318 134.143 118.966 134.376 119.568L135.581 119.227Z" fill="#18216D"/>
<g opacity="0.8">
<path fill-rule="evenodd" clip-rule="evenodd" d="M56.6774 81.2994C54.9141 79.5673 52.0445 79.5673 50.2809 81.2994C50.1831 81.3954 50.0895 81.4966 50.0001 81.6025C49.9107 81.4962 49.8171 81.3954 49.719 81.299C47.9558 79.567 45.0862 79.567 43.3226 81.299C41.559 83.0311 41.5593 85.85 43.3226 87.5824L49.7538 93.8999C49.8216 93.9665 49.9107 94 49.9998 94C50.0888 94 50.1779 93.9665 50.2458 93.8999L56.677 87.5824C58.4409 85.8503 58.4409 83.0314 56.6774 81.2994Z" fill="#FF523D"/>
</g>
<path opacity="0.8" fill-rule="evenodd" clip-rule="evenodd" d="M77.6774 81.2994C75.9141 79.5673 73.0445 79.5673 71.2809 81.2994C71.1831 81.3954 71.0895 81.4966 71.0001 81.6025C70.9107 81.4962 70.8171 81.3954 70.719 81.299C68.9558 79.567 66.0862 79.567 64.3226 81.299C62.559 83.0311 62.5593 85.85 64.3226 87.5824L70.7538 93.8999C70.8216 93.9665 70.9107 94 70.9998 94C71.0888 94 71.1779 93.9665 71.2458 93.8999L77.677 87.5824C79.4409 85.8503 79.4409 83.0314 77.6774 81.2994Z" fill="#FF523D"/>
<path opacity="0.8" fill-rule="evenodd" clip-rule="evenodd" d="M98.6774 81.2994C96.9141 79.5673 94.0445 79.5673 92.2809 81.2994C92.1831 81.3954 92.0895 81.4966 92.0001 81.6025C91.9107 81.4962 91.8171 81.3954 91.719 81.299C89.9558 79.567 87.0862 79.567 85.3226 81.299C83.559 83.0311 83.5593 85.85 85.3226 87.5824L91.7538 93.8999C91.8216 93.9665 91.9107 94 91.9998 94C92.0888 94 92.1779 93.9665 92.2458 93.8999L98.677 87.5824C100.441 85.8503 100.441 83.0314 98.6774 81.2994Z" fill="#FF523D"/>
</svg>
