<svg width="108" height="134" viewBox="0 0 108 134" fill="none" xmlns="http://www.w3.org/2000/svg">
<path d="M2.87642 49.3295H23.821V57H32.642V49.3295H38.054V41.9361H32.642V13.3636H21.0938L2.87642 42.0639V49.3295ZM23.9915 41.9361H12.1662V41.5952L23.6506 23.4205H23.9915V41.9361ZM47.7713 57.554C50.4986 57.554 52.8636 55.2741 52.8849 52.4403C52.8636 49.6491 50.4986 47.3693 47.7713 47.3693C44.9588 47.3693 42.6364 49.6491 42.6577 52.4403C42.6364 55.2741 44.9588 57.554 47.7713 57.554ZM74.2198 12.767C64.4613 12.7244 57.8775 19.1165 57.9201 27.8949C57.9414 36.0341 63.5877 41.9361 71.3221 41.9361C76.1161 41.9361 80.3775 39.6136 82.3164 35.7784H82.6147C82.5934 44.429 79.5891 49.6918 73.9002 49.6918C70.555 49.6918 68.1474 47.8594 67.4442 44.6847H58.3462C59.1985 52.0355 65.1644 57.5966 73.9002 57.5966C84.7028 57.5966 91.6701 48.8608 91.6488 34.0526C91.6275 18.2429 83.19 12.8097 74.2198 12.767ZM74.2837 20.0114C78.5238 20.0114 81.6559 23.4631 81.6985 27.6179C81.7198 31.794 78.4173 35.2457 74.1985 35.2457C69.9371 35.2457 66.8903 31.9219 66.869 27.6392C66.8263 23.3778 70.0011 20.0114 74.2837 20.0114Z" fill="#18216D"/>
<path fill-rule="evenodd" clip-rule="evenodd" d="M16.3833 83.8322L11.0555 83.0581L8.67381 78.2304C8.60601 78.1151 8.48223 78.0443 8.34847 78.0443C8.2147 78.0443 8.09093 78.1151 8.02313 78.2304L5.6403 83.057L0.311069 83.8322C0.174365 83.8519 0.0607138 83.9476 0.0178921 84.0789C-0.0249296 84.2102 0.010503 84.3544 0.109295 84.451L3.9655 88.2092L3.05534 93.5155C3.03212 93.6516 3.08806 93.789 3.19969 93.8702C3.31132 93.9513 3.45932 93.9621 3.58155 93.898L8.3472 91.3929L13.1128 93.897C13.2351 93.961 13.3831 93.9502 13.4947 93.8691C13.6063 93.7879 13.6623 93.6505 13.6391 93.5145L12.7289 88.2092L16.5851 84.451C16.6839 84.3545 16.7193 84.2103 16.6766 84.079C16.6339 83.9477 16.5203 83.852 16.3837 83.8322H16.3833Z" fill="#F5A623"/>
<path fill-rule="evenodd" clip-rule="evenodd" d="M39.0285 83.8322L33.7007 83.0581L31.319 78.2304C31.2511 78.1151 31.1274 78.0443 30.9936 78.0443C30.8598 78.0443 30.7361 78.1151 30.6683 78.2304L28.2854 83.057L22.9562 83.8322C22.8195 83.8519 22.7059 83.9476 22.663 84.0789C22.6202 84.2102 22.6556 84.3544 22.7544 84.451L26.6106 88.2092L25.7005 93.5155C25.6773 93.6516 25.7332 93.789 25.8448 93.8702C25.9565 93.9513 26.1045 93.9621 26.2267 93.898L30.9923 91.3929L35.758 93.897C35.8802 93.961 36.0282 93.9502 36.1398 93.8691C36.2515 93.7879 36.3074 93.6505 36.2842 93.5145L35.374 88.2092L39.2302 84.451C39.329 84.3545 39.3645 84.2103 39.3218 84.079C39.279 83.9477 39.1655 83.852 39.0288 83.8322H39.0285Z" fill="#F5A623"/>
<path fill-rule="evenodd" clip-rule="evenodd" d="M61.6736 83.8322L56.3458 83.0581L53.9641 78.2304C53.8963 78.1151 53.7725 78.0443 53.6388 78.0443C53.505 78.0443 53.3812 78.1151 53.3134 78.2304L50.9306 83.057L45.6014 83.8322C45.4646 83.8519 45.351 83.9476 45.3082 84.0789C45.2654 84.2102 45.3008 84.3544 45.3996 84.451L49.2558 88.2092L48.3456 93.5155C48.3224 93.6516 48.3783 93.789 48.49 93.8702C48.6016 93.9513 48.7496 93.9621 48.8718 93.898L53.6375 91.3929L58.4031 93.897C58.5254 93.961 58.6734 93.9502 58.785 93.8691C58.8966 93.7879 58.9526 93.6505 58.9293 93.5145L58.0192 88.2092L61.8754 84.451C61.9742 84.3545 62.0096 84.2103 61.9669 84.079C61.9242 83.9477 61.8106 83.852 61.674 83.8322H61.6736Z" fill="#F5A623"/>
<path fill-rule="evenodd" clip-rule="evenodd" d="M84.3189 83.8322L78.9911 83.0581L76.6094 78.2304C76.5416 78.1151 76.4178 78.0443 76.284 78.0443C76.1502 78.0443 76.0265 78.1151 75.9587 78.2304L73.5758 83.057L68.2466 83.8322C68.1099 83.8519 67.9963 83.9476 67.9534 84.0789C67.9106 84.2102 67.946 84.3544 68.0448 84.451L71.9011 88.2092L70.9909 93.5155C70.9677 93.6516 71.0236 93.789 71.1352 93.8702C71.2469 93.9513 71.3949 93.9621 71.5171 93.898L76.2827 91.3929L81.0484 93.897C81.1706 93.961 81.3186 93.9502 81.4303 93.8691C81.5419 93.7879 81.5978 93.6505 81.5746 93.5145L80.6644 88.2092L84.5206 84.451C84.6194 84.3545 84.6549 84.2103 84.6122 84.079C84.5694 83.9477 84.4559 83.852 84.3192 83.8322H84.3189Z" fill="#F5A623"/>
<path fill-rule="evenodd" clip-rule="evenodd" d="M106.964 83.8322L101.636 83.0581L99.2544 78.2304C99.1866 78.1151 99.0628 78.0443 98.929 78.0443C98.7953 78.0443 98.6715 78.1151 98.6037 78.2304L96.2209 83.057L90.8916 83.8322C90.7549 83.8519 90.6413 83.9476 90.5985 84.0789C90.5556 84.2102 90.5911 84.3544 90.6899 84.451L94.5461 88.2092L93.6359 93.5155C93.6127 93.6516 93.6686 93.789 93.7803 93.8702C93.8919 93.9513 94.0399 93.9621 94.1621 93.898L98.9278 91.3929L103.693 93.897C103.816 93.961 103.964 93.9502 104.075 93.8691C104.187 93.7879 104.243 93.6505 104.22 93.5145L103.309 88.2092L107.166 84.451C107.264 84.3545 107.3 84.2103 107.257 84.079C107.214 83.9477 107.101 83.852 106.964 83.8322H106.964Z" fill="#F5A623"/>
<path d="M1.20455 126H8.54545V124.75H3.13636V124.659L5.75 121.864C7.75 119.722 8.34091 118.722 8.34091 117.432C8.34091 115.636 6.88636 114.205 4.84091 114.205C2.80114 114.205 1.25 115.591 1.25 117.636H2.59091C2.59091 116.312 3.44886 115.432 4.79545 115.432C6.05682 115.432 7.02273 116.205 7.02273 117.432C7.02273 118.506 6.39205 119.301 5.04545 120.773L1.20455 124.977V126ZM12.9148 124.409H11.4602L11.392 125.045C11.2273 126.585 10.9034 128.119 10.7557 128.841H11.7784C12.0511 128.068 12.6307 126.318 12.8239 125.023L12.9148 124.409ZM18.9716 114.205C16.608 114.176 15.0852 115.955 15.0852 118.091C15.0852 120.341 16.7443 121.955 18.7443 121.955C19.9489 121.955 20.9716 121.364 21.608 120.409H21.6989C21.6989 123.273 20.5852 124.909 18.7898 124.909C17.5625 124.909 16.8125 124.136 16.5625 123.068H15.1761C15.4489 124.909 16.8352 126.159 18.7898 126.159C21.4034 126.159 23.017 123.841 23.017 119.705C23.017 115.432 20.8807 114.227 18.9716 114.205ZM18.9716 115.455C20.4261 115.455 21.4943 116.705 21.4943 118.068C21.4943 119.455 20.358 120.705 18.9261 120.705C17.4943 120.705 16.4489 119.545 16.4489 118.091C16.4489 116.636 17.5398 115.455 18.9716 115.455ZM29.1832 126.159C31.4389 126.159 33.1151 124.744 33.1151 122.841C33.1151 121.364 32.2401 120.29 30.7741 120.045V119.955C31.9503 119.597 32.6832 118.631 32.6832 117.318C32.6832 115.67 31.3821 114.205 29.2287 114.205C27.2173 114.205 25.5469 115.443 25.4787 117.273H26.8423C26.8935 116.114 27.9957 115.432 29.206 115.432C30.4901 115.432 31.3196 116.21 31.3196 117.386C31.3196 118.614 30.3594 119.409 28.9787 119.409H28.0469V120.659H28.9787C30.7457 120.659 31.7287 121.557 31.7287 122.841C31.7287 124.074 30.6548 124.909 29.1605 124.909C27.8139 124.909 26.7457 124.216 26.6605 123.091H25.2287C25.3139 124.92 26.9276 126.159 29.1832 126.159ZM39.1662 126.159C41.4901 126.159 43.1094 124.801 43.1207 122.909C43.1094 121.438 42.1264 120.188 40.8707 119.955V119.886C41.9616 119.602 42.6776 118.534 42.6889 117.295C42.6776 115.523 41.1889 114.205 39.1662 114.205C37.1207 114.205 35.6321 115.523 35.6435 117.295C35.6321 118.534 36.348 119.602 37.4616 119.886V119.955C36.1832 120.188 35.2003 121.438 35.2116 122.909C35.2003 124.801 36.8196 126.159 39.1662 126.159ZM39.1662 124.909C37.5696 124.909 36.5866 124.091 36.598 122.841C36.5866 121.528 37.6719 120.591 39.1662 120.591C40.6378 120.591 41.723 121.528 41.7344 122.841C41.723 124.091 40.7401 124.909 39.1662 124.909ZM39.1662 119.386C37.8935 119.386 36.9957 118.591 37.0071 117.386C36.9957 116.205 37.8594 115.432 39.1662 115.432C40.4503 115.432 41.3139 116.205 41.3253 117.386C41.3139 118.591 40.4162 119.386 39.1662 119.386ZM50.0028 126H51.4119V121.455H53.9574C54.0597 121.455 54.1562 121.455 54.2528 121.449L56.7074 126H58.3438L55.7131 121.193C57.196 120.688 57.8892 119.477 57.8892 117.932C57.8892 115.875 56.6619 114.364 53.9347 114.364H50.0028V126ZM51.4119 120.182V115.614H53.8892C55.7756 115.614 56.5028 116.534 56.5028 117.932C56.5028 119.33 55.7756 120.182 53.9119 120.182H51.4119ZM62.6236 126.205C64.1463 126.205 64.9418 125.386 65.2145 124.818H65.2827V126H66.6236V120.25C66.6236 117.477 64.5099 117.159 63.3963 117.159C62.0781 117.159 60.5781 117.614 59.8963 119.205L61.169 119.659C61.4645 119.023 62.1634 118.341 63.4418 118.341C64.6747 118.341 65.2827 118.994 65.2827 120.114V120.159C65.2827 120.807 64.6236 120.75 63.0327 120.955C61.4134 121.165 59.6463 121.523 59.6463 123.523C59.6463 125.227 60.9645 126.205 62.6236 126.205ZM62.8281 125C61.7599 125 60.9872 124.523 60.9872 123.591C60.9872 122.568 61.919 122.25 62.9645 122.114C63.5327 122.045 65.0554 121.886 65.2827 121.614V122.841C65.2827 123.932 64.419 125 62.8281 125ZM72.8665 117.273H71.0028V115.182H69.6619V117.273H68.3438V118.409H69.6619V123.864C69.6619 125.386 70.8892 126.114 72.0256 126.114C72.5256 126.114 72.8438 126.023 73.0256 125.955L72.7528 124.75C72.6392 124.773 72.4574 124.818 72.1619 124.818C71.571 124.818 71.0028 124.636 71.0028 123.5V118.409H72.8665V117.273ZM74.8835 126H76.2244V117.273H74.8835V126ZM75.5653 115.818C76.0881 115.818 76.5199 115.409 76.5199 114.909C76.5199 114.409 76.0881 114 75.5653 114C75.0426 114 74.6108 114.409 74.6108 114.909C74.6108 115.409 75.0426 115.818 75.5653 115.818ZM80.0213 120.75C80.0213 119.227 80.9645 118.364 82.2486 118.364C83.4929 118.364 84.2486 119.176 84.2486 120.545V126H85.5895V120.455C85.5895 118.227 84.402 117.159 82.6349 117.159C81.3168 117.159 80.4986 117.75 80.0895 118.636H79.9759V117.273H78.6804V126H80.0213V120.75ZM91.5625 129.455C93.6534 129.455 95.3352 128.5 95.3352 126.25V117.273H94.0398V118.659H93.9034C93.608 118.205 93.0625 117.159 91.358 117.159C89.1534 117.159 87.6307 118.909 87.6307 121.591C87.6307 124.318 89.2216 125.864 91.3352 125.864C93.0398 125.864 93.5852 124.864 93.8807 124.386H93.9943V126.159C93.9943 127.614 92.9716 128.273 91.5625 128.273C89.9773 128.273 89.4205 127.438 89.0625 126.955L87.9943 127.705C88.5398 128.619 89.6136 129.455 91.5625 129.455ZM91.517 124.659C89.8352 124.659 88.9716 123.386 88.9716 121.568C88.9716 119.795 89.8125 118.364 91.517 118.364C93.1534 118.364 94.017 119.682 94.017 121.568C94.017 123.5 93.1307 124.659 91.517 124.659Z" fill="#18216D"/>
</svg>
